<svg xmlns="http://www.w3.org/2000/svg" version="1.1" xmlns:xlink="http://www.w3.org/1999/xlink" xmlns:svgjs="http://svgjs.com/svgjs" viewBox="0 0 174.38 182.33"><style>.cls-1{fill:#44bdd2;}.cls-2{fill:#000000;}@media ( prefers-color-scheme: dark ) {.cls-1{fill:#44bdd2;}.cls-2{fill:#ffffff;}}</style><path class="cls-1" d="M174.38,163.1a17.71,17.71,0,1,1-17.7-17.7,17.7,17.7,0,0,1,17.7,17.7"/><path class="cls-2" d="M35.21,72.12c7.52,0,14.71.08,21.89,0a55.71,55.71,0,0,0,9.49-.84c7.23-1.41,13.61-4.23,16.18-12C87,46.47,80.12,34.94,66.54,33.42c-9.06-1-18.28-.66-27.44-.91-1.27,0-2.55,0-3.89,0Zm0,78.16c15.73-.45,31.15-.37,46.48-1.53,9.71-.73,17.39-5.6,20-16.05,2.62-10.64-1.25-21.38-9.82-25.27a37.26,37.26,0,0,0-13.32-3.57c-13.69-.59-27.42-.48-41.13-.62a13,13,0,0,0-2.17.38ZM0,182.15V.3C1.14.19,2.19,0,3.23,0c21.32.06,42.64,0,64,.31a64.83,64.83,0,0,1,31,7.91c14.56,8.14,21.44,20.91,22.19,37.21.55,11.82-2.09,22.63-11.16,31-2.21,2-4.83,3.65-7.62,5.73l6.7,1.75c17.67,4.71,28.52,17.45,30.46,35.68.91,8.59.75,17.11-1.72,25.44-6,20.3-21,30.54-40.56,34.94a101,101,0,0,1-20.75,2.21c-24.38.26-48.76.11-73.14.1-.73,0-1.45-.07-2.55-.13"/></svg>